<svg xmlns="http://www.w3.org/2000/svg" xmlns:xlink="http://www.w3.org/1999/xlink" version="1.1" width="256" height="256" viewBox="0 0 256 256" xml:space="preserve">

<defs>
</defs>
<g style="stroke: none; stroke-width: 0; stroke-dasharray: none; stroke-linecap: butt; stroke-linejoin: miter; stroke-miterlimit: 10; fill: none; fill-rule: nonzero; opacity: 1;" transform="translate(1.4065934065934016 1.4065934065934016) scale(2.81 2.81)" >
	<circle cx="45" cy="45" r="45" style="stroke: none; stroke-width: 1; stroke-dasharray: none; stroke-linecap: butt; stroke-linejoin: miter; stroke-miterlimit: 10; fill: rgb(106,93,142); fill-rule: nonzero; opacity: 1;" transform="  matrix(1 0 0 1 0 0) "/>
	<path d="M 32.275 67.764 c -1.657 0 -3 -1.343 -3 -3 V 30.775 c 0 -1.362 0.917 -2.553 2.234 -2.9 l 29.942 -7.907 c 0.897 -0.238 1.858 -0.043 2.597 0.523 c 0.737 0.568 1.169 1.446 1.169 2.377 v 34.235 c 0 1.657 -1.343 3 -3 3 s -3 -1.343 -3 -3 v -30.34 l -23.942 6.322 v 31.678 C 35.275 66.421 33.932 67.764 32.275 67.764 z" style="stroke: none; stroke-width: 1; stroke-dasharray: none; stroke-linecap: butt; stroke-linejoin: miter; stroke-miterlimit: 10; fill: rgb(73,68,84); fill-rule: nonzero; opacity: 1;" transform=" matrix(1 0 0 1 0 0) " stroke-linecap="round" />
	<ellipse cx="25.236" cy="65.11" rx="10.736" ry="7.72" style="stroke: none; stroke-width: 1; stroke-dasharray: none; stroke-linecap: butt; stroke-linejoin: miter; stroke-miterlimit: 10; fill: rgb(73,68,84); fill-rule: nonzero; opacity: 1;" transform=" matrix(1 0 0 1 0 0) "/>
	<ellipse cx="55.138" cy="59.453" rx="10.768" ry="7.743" style="stroke: none; stroke-width: 1; stroke-dasharray: none; stroke-linecap: butt; stroke-linejoin: miter; stroke-miterlimit: 10; fill: rgb(73,68,84); fill-rule: nonzero; opacity: 1;" transform=" matrix(1 0 0 1 0 0) "/>
	<rect x="31.83" y="37.25" rx="0" ry="0" width="30.82" height="6" style="stroke: none; stroke-width: 1; stroke-dasharray: none; stroke-linecap: butt; stroke-linejoin: miter; stroke-miterlimit: 10; fill: rgb(73,68,84); fill-rule: nonzero; opacity: 1;" transform=" matrix(0.9714 -0.2373 0.2373 0.9714 -8.2018 12.3624) "/>
	<path d="M 35.972 64.066 c -1.657 0 -3 -1.343 -3 -3 V 27.078 c 0 -1.362 0.917 -2.553 2.234 -2.9 l 29.942 -7.907 c 0.897 -0.237 1.858 -0.044 2.597 0.523 c 0.737 0.568 1.169 1.446 1.169 2.377 v 36.172 c 0 1.657 -1.343 3 -3 3 s -3 -1.343 -3 -3 V 23.066 l -23.941 6.322 v 31.678 C 38.972 62.724 37.628 64.066 35.972 64.066 z" style="stroke: none; stroke-width: 1; stroke-dasharray: none; stroke-linecap: butt; stroke-linejoin: miter; stroke-miterlimit: 10; fill: rgb(255,255,255); fill-rule: nonzero; opacity: 1;" transform=" matrix(1 0 0 1 0 0) " stroke-linecap="round" />
	<ellipse cx="28.696" cy="61.41" rx="10.736" ry="7.72" style="stroke: none; stroke-width: 1; stroke-dasharray: none; stroke-linecap: butt; stroke-linejoin: miter; stroke-miterlimit: 10; fill: rgb(255,255,255); fill-rule: nonzero; opacity: 1;" transform=" matrix(1 0 0 1 0 0) "/>
	<ellipse cx="58.728" cy="55.763000000000005" rx="10.768" ry="7.743" style="stroke: none; stroke-width: 1; stroke-dasharray: none; stroke-linecap: butt; stroke-linejoin: miter; stroke-miterlimit: 10; fill: rgb(255,255,255); fill-rule: nonzero; opacity: 1;" transform=" matrix(1 0 0 1 0 0) "/>
	<rect x="35.53" y="33.55" rx="0" ry="0" width="30.82" height="6" style="stroke: none; stroke-width: 1; stroke-dasharray: none; stroke-linecap: butt; stroke-linejoin: miter; stroke-miterlimit: 10; fill: rgb(255,255,255); fill-rule: nonzero; opacity: 1;" transform=" matrix(0.9714 -0.2373 0.2373 0.9714 -7.2189 13.134) "/>
</g>
</svg>